<?xml version="1.0" encoding="utf-8"?>
<svg version="1.1" id="Layer_1" xmlns="http://www.w3.org/2000/svg" xmlns:xlink="http://www.w3.org/1999/xlink" x="0px" y="0px"
	 viewBox="0 0 1068.599 1648.744" enable-background="new 0 0 1068.599 1648.744" xml:space="preserve">
<g>
	<path d="M1011.444,1619.96c-10.433,0.892-20.857,1.924-31.302,2.631c-7.445,0.504-16.873,5.687-21.051-4.37
		c-15.743-37.892,54.475-20.422,12.528-100.444c-15.875-30.284-23.883-65.356-41.086-93.829
		c-21.885-36.222-37.838-72.254-41.934-113.941c-0.709-7.221-7.082-9.842-12.209-12.958c-6.74-4.096-13.643-8.388-21.06-10.804
		c-14.015-4.567-30.237-25.717-37.581-17.58c-12.718,14.093-22.77,35.319-19.945,57.124c2.761,21.306-0.434,42.289-1.005,63.35
		c-0.625,23.049-17.193,34.848-37.674,27.323c-31.323-11.508-68.084-40.018-57.487-59.48c4.96-9.109,14.637-7.619,21.209-4.516
		c29.059,13.717,34.58-4.068,32.606-25.675c-11.513-126.011-5.502-161.841,56.668-156.501c20.882,1.794,41.994-1.841,62.815,4.747
		c14.714,4.655,21.574-2.716,18.815-17.993c-1.082-5.987-4.231-11.852-4.174-17.751c0.283-29.244-11.742-33.891-40.684-30.912
		c-47.785,4.918-103.054-31.6-118.061-88.066c-7.072-26.608-7.956-73.735-55.398-47.522c-32.904,18.18-67.85,30.802-103.693,40.917
		c-26.686,7.531-55.034,7.182-81.07,0.05c-237.202-64.978-193.712-66.064-260.266-126.519
		c-56.911-51.695-104.079-112.237-152.157-171.817c-29.251-36.25-39.181-79.498-37.555-125c0.583-16.33-3.69-31.453-5.6-46.988
		c-6.267-50.988-4.845-102.071-4.365-153.089c1.165-123.882,145.013-217.903,255.841-305.261
		c52.856-41.663,111.642-52.25,174.648-54.373c42.702-1.439,145.749-19.132,225.018,13.886
		c46.735,19.466,94.615,36.875,139.304,60.315c28.882,15.149,48.586,48.056,80.582,57.012c28.627,8.013,36.503,34.958,57.75,49.404
		c13.816,9.393,21.022,33.736,29.853,51.611c21.883,44.292,29.949,93.132,39.377,141.581c3.992,20.517,0.305,38.693-3.051,56.931
		c-7.037,38.248,5.807,76.929-4.641,114.656c-13.784,49.777-26.719,100.014-60.876,140.966
		c-29.439,35.296-32.261,65.181-8.265,103.485c29.378,46.895,43.427,100.972,71.005,149.019
		c11.179,19.477,6.948,47.446,1.847,70.334c-5.709,25.616-7.393,52.601-19.45,76.643c-24.3,48.453,12.667,76.417-11.362,188.999
		c-29.538,138.394,41.002,141.195,18.18,210.484c-6.938,21.065,11.471,34.703,20.267,69.288c4.987,19.61-1.56,30.148-22.08,31.308
		C1013.598,1617.744,1012.52,1618.851,1011.444,1619.96z M950.397,945.871c-3.557-40.003-25.625-74.146-33.899-112.363
		c-1.079-4.986,0.415-11.603-5.702-13.653c-7.56-2.534-10.632,4.227-14.17,9.042c-102.203,139.06-158.395,100.38-137.028,141.599
		c18.171,35.052,40.589,63.078,85.444,60.823c27.65-1.39,14.904-10.267,0.497-52.973c-8.447-25.039-0.171-52.375,18.607-62.776
		c19.96-11.056,49.577-4.118,66.675,14.735C936.193,936.23,937.922,947.34,950.397,945.871z"/>
	<path d="M1014.678,1616.638c2.063,4.161,0.655,4.943-3.231,3.318C1012.52,1618.851,1013.598,1617.744,1014.678,1616.638z"/>
</g>
</svg>
